<svg width="50" height="42" viewBox="0 0 50 42" fill="none" xmlns="http://www.w3.org/2000/svg">
<path d="M27.8885 13.1597C27.4725 13.1597 27.1343 12.8378 27.1343 12.4408V11.2191C27.1343 10.8226 27.4719 10.5002 27.8885 10.5002C28.3045 10.5002 28.6427 10.8221 28.6427 11.2191V12.4408C28.6427 12.8378 28.3045 13.1597 27.8885 13.1597Z" fill="white"/>
<path d="M24.7174 13.1597C24.3013 13.1597 23.9631 12.8378 23.9631 12.4408V11.2191C23.9631 10.8226 24.3008 10.5002 24.7174 10.5002C25.1334 10.5002 25.4716 10.8221 25.4716 11.2191V12.4408C25.4711 12.8378 25.1339 13.1597 24.7174 13.1597Z" fill="white"/>
<path d="M21.5467 13.1597C21.1307 13.1597 20.7925 12.8378 20.7925 12.4408V11.2191C20.7925 10.8226 21.1301 10.5002 21.5467 10.5002C21.9627 10.5002 22.3009 10.8221 22.3009 11.2191V12.4408C22.3009 12.8378 21.9633 13.1597 21.5467 13.1597Z" fill="white"/>
<path d="M27.8885 18.1555C27.4725 18.1555 27.1343 17.8337 27.1343 17.4366V16.2155C27.1343 15.8189 27.4719 15.4966 27.8885 15.4966C28.3045 15.4966 28.6427 15.8184 28.6427 16.2155V17.4366C28.6427 17.8337 28.3045 18.1555 27.8885 18.1555Z" fill="white"/>
<path d="M24.7174 18.1555C24.3013 18.1555 23.9631 17.8337 23.9631 17.4366V16.2155C23.9631 15.8189 24.3008 15.4966 24.7174 15.4966C25.1334 15.4966 25.4716 15.8184 25.4716 16.2155V17.4366C25.4711 17.8337 25.1339 18.1555 24.7174 18.1555Z" fill="white"/>
<path d="M21.5467 18.1555C21.1307 18.1555 20.7925 17.8337 20.7925 17.4366V16.2155C20.7925 15.8189 21.1301 15.4966 21.5467 15.4966C21.9627 15.4966 22.3009 15.8184 22.3009 16.2155V17.4366C22.3009 17.8337 21.9633 18.1555 21.5467 18.1555Z" fill="white"/>
<path d="M27.8885 23.1515C27.4725 23.1515 27.1343 22.8297 27.1343 22.4326V21.2109C27.1343 20.8144 27.4719 20.4921 27.8885 20.4921C28.3045 20.4921 28.6427 20.8139 28.6427 21.2109V22.4326C28.6427 22.8297 28.3045 23.1515 27.8885 23.1515Z" fill="white"/>
<path d="M24.7174 23.1515C24.3013 23.1515 23.9631 22.8297 23.9631 22.4326V21.2109C23.9631 20.8144 24.3008 20.4921 24.7174 20.4921C25.1334 20.4921 25.4716 20.8139 25.4716 21.2109V22.4326C25.4711 22.8297 25.1339 23.1515 24.7174 23.1515Z" fill="white"/>
<path d="M21.5467 23.1515C21.1307 23.1515 20.7925 22.8297 20.7925 22.4326V21.2109C20.7925 20.8144 21.1301 20.4921 21.5467 20.4921C21.9627 20.4921 22.3009 20.8139 22.3009 21.2109V22.4326C22.3009 22.8297 21.9633 23.1515 21.5467 23.1515Z" fill="white"/>
<path d="M27.8885 28.1465C27.4725 28.1465 27.1343 27.8247 27.1343 27.4276V26.2059C27.1343 25.8094 27.4719 25.4871 27.8885 25.4871C28.3045 25.4871 28.6427 25.8089 28.6427 26.2059V27.4276C28.6427 27.8247 28.3045 28.1465 27.8885 28.1465Z" fill="white"/>
<path d="M24.7174 28.1465C24.3013 28.1465 23.9631 27.8247 23.9631 27.4276V26.2059C23.9631 25.8094 24.3008 25.4871 24.7174 25.4871C25.1334 25.4871 25.4716 25.8089 25.4716 26.2059V27.4276C25.4711 27.8247 25.1339 28.1465 24.7174 28.1465Z" fill="white"/>
<path d="M21.5467 28.1465C21.1307 28.1465 20.7925 27.8247 20.7925 27.4276V26.2059C20.7925 25.8094 21.1301 25.4871 21.5467 25.4871C21.9627 25.4871 22.3009 25.8089 22.3009 26.2059V27.4276C22.3009 27.8247 21.9633 28.1465 21.5467 28.1465Z" fill="white"/>
<path d="M27.8885 33.1423C27.4725 33.1423 27.1343 32.8205 27.1343 32.4235V31.2023C27.1343 30.8058 27.4719 30.4834 27.8885 30.4834C28.3045 30.4834 28.6427 30.8052 28.6427 31.2023V32.4235C28.6427 32.82 28.3045 33.1423 27.8885 33.1423Z" fill="white"/>
<path d="M24.7174 33.1423C24.3013 33.1423 23.9631 32.8205 23.9631 32.4235V31.2023C23.9631 30.8058 24.3008 30.4834 24.7174 30.4834C25.1334 30.4834 25.4716 30.8052 25.4716 31.2023V32.4235C25.4711 32.82 25.1339 33.1423 24.7174 33.1423Z" fill="white"/>
<path d="M21.5467 33.1423C21.1307 33.1423 20.7925 32.8205 20.7925 32.4235L20.793 31.2023C20.793 30.8058 21.1307 30.4834 21.5472 30.4834C21.9633 30.4834 22.3015 30.8052 22.3015 31.2023V32.4235C22.3009 32.82 21.9633 33.1423 21.5467 33.1423Z" fill="white"/>
<path d="M0 40.3428C0 40.7628 0.351151 41.1042 0.784354 41.1042H48.549C48.9816 41.1042 49.3333 40.7633 49.3333 40.3428C49.3333 39.9228 48.9822 39.5814 48.549 39.5814H47.099V17.7205C47.099 17.3005 46.7479 16.9591 46.3147 16.9591L33.5086 16.9596V1.19902C33.5086 0.932483 33.3653 0.686119 33.1312 0.54806C32.8976 0.409483 32.6056 0.400988 32.3627 0.523635L17.8031 7.88224C17.5433 8.01338 17.3814 8.27356 17.3814 8.55763V22.3242H3.29092C2.85827 22.3242 2.50657 22.665 2.50657 23.0856V39.5815H0.782604C0.349961 39.581 0 39.9222 0 40.3428ZM33.5089 28.4913H45.5311V39.582L33.5089 39.5815V28.4913ZM33.5089 23.2002H45.5311V26.9691L33.5089 26.9685V23.2002ZM33.5089 18.4816H45.5311V21.6786H33.5089V18.4816ZM18.9493 9.01995L31.9396 2.45406V39.5808H18.9493V9.01995ZM7.9526 33.5001C7.9526 31.92 9.24234 30.634 10.828 30.634C12.4136 30.634 13.7039 31.9195 13.7039 33.5001V39.5817H7.9526V33.5001ZM4.07523 23.8467H17.3812V39.5815H15.2726V33.4999C15.2726 31.0803 13.2795 29.1115 10.828 29.1115C8.37757 29.1115 6.38449 31.0797 6.38449 33.4999V39.5815H4.07523V23.8467Z" fill="white"/>
</svg>
