<svg width="442" height="329" viewBox="0 0 442 329" fill="none" xmlns="http://www.w3.org/2000/svg">
<path d="M220.766 328.995C315.327 328.995 391.984 324.519 391.984 318.999C391.984 313.478 315.327 309.002 220.766 309.002C126.206 309.002 49.5488 313.478 49.5488 318.999C49.5488 324.519 126.206 328.995 220.766 328.995Z" fill="#F5F5F5"/>
<path d="M216.245 13.7493H210.602V14.6589H216.245V13.7493Z" fill="url(#paint0_linear_307_260)"/>
<path d="M289.291 49.7489L288.608 64.9045L289.517 64.9455L290.199 49.7898L289.291 49.7489Z" fill="url(#paint1_linear_307_260)"/>
<path d="M287.535 17.8291H183.333L173.637 234.816H277.839L287.535 17.8291Z" fill="url(#paint2_linear_307_260)"/>
<path opacity="0.56" d="M284.427 20.8138H180.225L170.529 237.801H274.731L284.427 20.8138Z" fill="#FAFAFA"/>
<path opacity="0.07" d="M281.318 23.7898H177.117L167.412 240.777H271.613L281.318 23.7898Z" fill="url(#paint3_linear_307_260)"/>
<path d="M269.459 118.428H180.516L179.775 135.03H268.717L269.459 118.428Z" fill="white"/>
<path d="M229.429 106.312H181.055L180.728 113.739H229.103L229.429 106.312Z" fill="url(#paint4_linear_307_260)"/>
<path d="M267.454 163.235H178.512L177.77 179.836H266.712L267.454 163.235Z" fill="white"/>
<path opacity="0.47" d="M251.144 202.257H191.334L190.442 222.153H250.252L251.144 202.257Z" fill="url(#paint5_linear_307_260)"/>
<path d="M247.144 225.244H187.334C187.308 225.25 187.28 225.25 187.254 225.244C187.245 225.218 187.245 225.19 187.254 225.164L188.137 205.26C188.137 205.246 188.14 205.233 188.145 205.22C188.151 205.208 188.159 205.197 188.169 205.188C188.179 205.179 188.19 205.172 188.203 205.167C188.216 205.163 188.23 205.161 188.243 205.163H248.053C248.064 205.157 248.076 205.154 248.089 205.154C248.101 205.154 248.113 205.157 248.124 205.163C248.13 205.173 248.133 205.186 248.133 205.198C248.133 205.21 248.13 205.223 248.124 205.233L247.258 225.182C247.248 225.202 247.231 225.219 247.211 225.231C247.19 225.242 247.167 225.246 247.144 225.244ZM187.44 225.032H247.038L247.921 205.339H188.323L187.44 225.032Z" fill="white"/>
<path d="M218.983 151.119H179.05L178.724 158.554H218.647L218.983 151.119Z" fill="url(#paint6_linear_307_260)"/>
<path d="M250.005 64.7993C249.777 69.6309 248.058 74.2734 245.086 78.0895C242.886 80.9719 240.055 83.312 236.809 84.93C233.564 86.548 229.991 87.401 226.365 87.4235C223.435 87.4458 220.531 86.868 217.832 85.7256C215.134 84.5832 212.698 82.9004 210.674 80.7809C208.651 78.6614 207.083 76.15 206.066 73.4015C205.05 70.6529 204.607 67.7255 204.765 64.7993C205.076 58.7274 207.694 53.0034 212.085 48.798C216.476 44.5927 222.308 42.2235 228.387 42.1752C231.32 42.1478 234.227 42.7221 236.929 43.8626C239.63 45.003 242.07 46.6853 244.096 48.8057C246.122 50.926 247.691 53.4392 248.708 56.1901C249.724 58.941 250.166 61.8711 250.005 64.7993Z" fill="white"/>
<path d="M252.133 46.9085C252.075 48.1932 251.619 49.4279 250.826 50.4407C250.24 51.2063 249.486 51.8278 248.623 52.2579C247.76 52.6879 246.81 52.9151 245.846 52.9221C244.911 52.9278 243.99 52.7046 243.162 52.2721C242.334 51.8395 241.624 51.2108 241.095 50.4407C240.394 49.4002 240.047 48.1616 240.106 46.9085C240.191 45.2963 240.888 43.7775 242.055 42.6617C243.222 41.5459 244.77 40.9171 246.384 40.9036C247.163 40.8965 247.935 41.0489 248.653 41.3515C249.37 41.6541 250.018 42.1005 250.557 42.663C251.096 43.2256 251.513 43.8925 251.784 44.6227C252.055 45.3528 252.174 46.1307 252.133 46.9085Z" fill="url(#paint7_linear_307_260)"/>
<path d="M190.098 126.729C190.055 127.44 189.745 128.109 189.228 128.601C188.712 129.093 188.029 129.37 187.316 129.378C186.972 129.382 186.63 129.316 186.313 129.182C185.996 129.049 185.709 128.853 185.47 128.604C185.232 128.356 185.047 128.061 184.927 127.739C184.807 127.416 184.755 127.072 184.773 126.729C184.811 126.016 185.12 125.344 185.638 124.852C186.155 124.359 186.84 124.083 187.554 124.08C187.898 124.077 188.239 124.144 188.556 124.278C188.873 124.411 189.159 124.608 189.397 124.856C189.635 125.104 189.82 125.398 189.941 125.72C190.061 126.042 190.115 126.385 190.098 126.729Z" fill="#263238"/>
<path d="M202.001 126.729C201.961 127.441 201.651 128.111 201.134 128.603C200.618 129.095 199.933 129.372 199.22 129.378C198.876 129.381 198.536 129.313 198.219 129.18C197.903 129.046 197.617 128.849 197.38 128.601C197.142 128.353 196.958 128.059 196.839 127.737C196.719 127.415 196.667 127.072 196.685 126.729C196.723 126.017 197.031 125.347 197.547 124.855C198.062 124.362 198.745 124.085 199.458 124.08C199.802 124.075 200.143 124.142 200.461 124.275C200.778 124.408 201.065 124.605 201.303 124.853C201.542 125.101 201.727 125.396 201.847 125.719C201.967 126.041 202.019 126.385 202.001 126.729Z" fill="#263238"/>
<path d="M213.914 126.729C213.873 127.441 213.563 128.111 213.047 128.603C212.53 129.095 211.846 129.372 211.132 129.378C210.788 129.381 210.448 129.313 210.131 129.18C209.814 129.046 209.528 128.85 209.29 128.601C209.051 128.353 208.867 128.059 208.746 127.737C208.626 127.415 208.572 127.072 208.589 126.729C208.629 126.016 208.939 125.346 209.456 124.854C209.973 124.362 210.657 124.085 211.371 124.08C211.715 124.075 212.056 124.142 212.374 124.275C212.691 124.408 212.978 124.605 213.216 124.853C213.455 125.101 213.639 125.396 213.759 125.719C213.879 126.041 213.932 126.385 213.914 126.729Z" fill="#263238"/>
<path d="M188.093 171.536C188.051 172.247 187.74 172.916 187.224 173.408C186.708 173.899 186.024 174.177 185.311 174.185C184.968 174.188 184.627 174.12 184.31 173.987C183.993 173.853 183.707 173.656 183.469 173.408C183.231 173.16 183.046 172.866 182.925 172.544C182.805 172.222 182.751 171.879 182.768 171.536C182.809 170.823 183.119 170.153 183.635 169.661C184.152 169.169 184.836 168.892 185.55 168.886C185.894 168.883 186.234 168.951 186.551 169.084C186.868 169.218 187.154 169.415 187.392 169.663C187.631 169.911 187.815 170.205 187.936 170.527C188.056 170.849 188.11 171.192 188.093 171.536Z" fill="#263238"/>
<path d="M199.997 171.536C199.957 172.246 199.648 172.915 199.133 173.407C198.618 173.899 197.936 174.177 197.224 174.185C196.88 174.189 196.538 174.122 196.221 173.989C195.904 173.856 195.617 173.659 195.378 173.411C195.14 173.163 194.955 172.868 194.835 172.546C194.715 172.223 194.663 171.879 194.681 171.536C194.721 170.823 195.031 170.153 195.548 169.661C196.064 169.169 196.749 168.892 197.462 168.886C197.806 168.883 198.146 168.951 198.463 169.084C198.779 169.218 199.065 169.415 199.302 169.663C199.54 169.911 199.724 170.206 199.843 170.528C199.963 170.85 200.015 171.193 199.997 171.536Z" fill="#263238"/>
<path d="M211.936 171.536C211.896 172.248 211.586 172.918 211.069 173.41C210.552 173.902 209.868 174.179 209.154 174.185C208.811 174.186 208.471 174.118 208.154 173.984C207.838 173.85 207.552 173.653 207.315 173.406C207.077 173.158 206.892 172.864 206.771 172.543C206.65 172.221 206.595 171.879 206.611 171.536C206.653 170.824 206.964 170.155 207.48 169.663C207.996 169.172 208.68 168.894 209.393 168.886C209.737 168.882 210.078 168.949 210.396 169.082C210.713 169.215 211 169.412 211.238 169.66C211.477 169.908 211.661 170.203 211.781 170.525C211.901 170.848 211.954 171.192 211.936 171.536Z" fill="#263238"/>
<path d="M223.822 171.536C223.779 172.247 223.469 172.916 222.953 173.408C222.436 173.899 221.753 174.177 221.04 174.185C220.697 174.186 220.357 174.118 220.04 173.984C219.724 173.85 219.438 173.653 219.201 173.405C218.963 173.158 218.778 172.864 218.657 172.543C218.536 172.221 218.481 171.879 218.497 171.536C218.539 170.824 218.85 170.155 219.366 169.663C219.882 169.172 220.566 168.894 221.279 168.886C221.622 168.883 221.963 168.951 222.28 169.084C222.597 169.218 222.883 169.415 223.121 169.663C223.359 169.911 223.544 170.205 223.665 170.527C223.785 170.849 223.839 171.192 223.822 171.536Z" fill="#263238"/>
<path d="M235.779 171.536C235.736 172.247 235.426 172.916 234.909 173.408C234.393 173.899 233.71 174.177 232.997 174.185C232.653 174.189 232.311 174.122 231.994 173.989C231.677 173.856 231.39 173.659 231.151 173.411C230.913 173.163 230.728 172.868 230.608 172.546C230.488 172.223 230.436 171.879 230.454 171.536C230.494 170.823 230.804 170.153 231.321 169.661C231.837 169.169 232.522 168.892 233.235 168.886C233.579 168.883 233.92 168.951 234.237 169.084C234.554 169.218 234.84 169.415 235.078 169.663C235.316 169.911 235.501 170.205 235.621 170.527C235.742 170.849 235.795 171.192 235.779 171.536Z" fill="#263238"/>
<path d="M233.971 63.621C237.667 60.0066 237.864 54.2131 234.409 50.6809C230.955 47.1486 225.159 47.2153 221.463 50.8297C217.767 54.4442 217.57 60.2377 221.025 63.7699C224.479 67.3021 230.275 67.2355 233.971 63.621Z" fill="url(#paint8_linear_307_260)"/>
<path d="M245.086 78.0895C242.886 80.9719 240.055 83.312 236.809 84.93C233.564 86.548 229.991 87.401 226.365 87.4235C222.849 87.4533 219.379 86.6175 216.262 84.9897C213.145 83.3619 210.477 80.9922 208.492 78.0895C212.784 73.8155 219.574 71.025 227.098 71.025C234.622 71.025 241.174 73.8155 245.086 78.0895Z" fill="url(#paint9_linear_307_260)"/>
<path opacity="0.1" d="M233.971 63.621C237.667 60.0066 237.864 54.2131 234.409 50.6809C230.955 47.1486 225.159 47.2153 221.463 50.8297C217.767 54.4442 217.57 60.2377 221.025 63.7699C224.479 67.3021 230.275 67.2355 233.971 63.621Z" fill="white"/>
<path opacity="0.1" d="M245.086 78.0895C242.886 80.9719 240.055 83.312 236.809 84.93C233.564 86.548 229.991 87.401 226.365 87.4235C222.849 87.4533 219.379 86.6175 216.262 84.9897C213.145 83.3619 210.477 80.9922 208.492 78.0895C212.784 73.8155 219.574 71.025 227.098 71.025C234.622 71.025 241.174 73.8155 245.086 78.0895Z" fill="white"/>
<path d="M115.16 139.03C114.322 140.867 113.439 142.889 112.67 144.849C111.902 146.81 111.116 148.832 110.436 150.845C109.048 154.813 107.99 158.889 107.275 163.032L107.08 164.33C107.062 164.552 107.083 164.777 107.142 164.992C107.351 165.724 107.679 166.416 108.114 167.041C109.248 168.657 110.563 170.139 112.034 171.456C113.586 172.899 115.213 174.258 116.909 175.527C118.604 176.834 120.388 178.106 122.146 179.306L120.494 182.406C116.298 180.578 112.315 178.295 108.617 175.598C106.644 174.159 104.863 172.473 103.319 170.582C102.403 169.456 101.689 168.18 101.208 166.811C100.928 165.956 100.785 165.062 100.784 164.162C100.784 163.95 100.784 163.641 100.784 163.491V163.058L100.872 162.175C101.379 157.574 102.346 153.036 103.76 148.629C104.449 146.456 105.182 144.293 106.021 142.182C106.86 140.072 107.725 138.006 108.794 135.86L115.16 139.03Z" fill="#E2CFCC"/>
<path d="M120.901 178.759L127.144 175.598L125.528 182.45C125.528 182.45 121.245 183.651 119.258 181.567L120.901 178.759Z" fill="#E2CFCC"/>
<path d="M132.857 176.719L131.197 182.388L125.528 182.45L127.144 175.598L132.857 176.719Z" fill="#E2CFCC"/>
<path d="M141.67 105.968C142.004 107.192 142.469 108.376 143.057 109.5C142.885 109.695 142.664 109.84 142.417 109.919C142.169 109.998 141.905 110.009 141.653 109.951L141.67 105.968Z" fill="#D9B4B3"/>
<path d="M141.485 106.021C141.851 106.021 142.147 105.566 142.147 105.005C142.147 104.444 141.851 103.99 141.485 103.99C141.119 103.99 140.823 104.444 140.823 105.005C140.823 105.566 141.119 106.021 141.485 106.021Z" fill="black"/>
<path d="M141.291 104.025L142.633 103.645C142.633 103.645 141.979 104.687 141.291 104.025Z" fill="black"/>
<path d="M124.424 112.45C125.228 116.556 126.031 124.088 123.152 126.835C123.152 126.835 124.283 131.003 131.921 131.003C140.319 131.003 135.93 126.835 135.93 126.835C131.347 125.74 131.462 122.34 132.266 119.143L124.424 112.45Z" fill="#E2CFCC"/>
<path d="M122.19 103.089C122.614 109.951 122.649 112.865 126.111 116.388C131.329 121.686 139.666 119.673 141.299 112.856C142.774 106.674 141.838 96.5014 135.118 93.7728C133.643 93.1651 132.037 92.9438 130.452 93.1297C128.868 93.3157 127.357 93.9028 126.063 94.8355C124.768 95.7682 123.734 97.0157 123.056 98.46C122.378 99.9042 122.08 101.498 122.19 103.089Z" fill="#E2CFCC"/>
<path d="M122.87 95.3711C119.426 96.625 114.834 95.689 116.635 106.312C118.543 117.563 115.611 121.263 115.611 121.263C115.611 121.263 128.672 124.044 142.006 121.095C142.006 121.095 137.935 113.977 139.074 108.732C140.531 102.109 139.383 99.6628 139.383 99.6628C139.383 99.6628 127.709 93.605 122.87 95.3711Z" fill="black"/>
<path d="M137.44 106.666C137.444 107.97 137.818 109.247 138.518 110.348C139.454 111.778 140.558 111.231 140.831 109.712C141.079 108.379 140.893 106.021 139.701 105.102C138.509 104.184 137.458 105.085 137.44 106.666Z" fill="#E2CFCC"/>
<path d="M119.876 96.5279C118.887 93.7462 123.603 89.4634 133.581 91.2295C143.56 92.9956 143.993 101.305 143.993 101.305L141.979 98.9033L142.068 101.429L131.815 103.398L119.876 96.5279Z" fill="black"/>
<path d="M120.724 127.303C120.665 126.9 120.766 126.489 121.005 126.159C121.244 125.829 121.603 125.606 122.004 125.537C125.113 125.024 132.177 123.982 135.727 124.477C138.376 124.848 139.065 126.384 139.18 127.647C139.198 127.868 139.168 128.091 139.093 128.299C139.018 128.508 138.899 128.698 138.744 128.857C138.59 129.016 138.403 129.14 138.196 129.221C137.989 129.302 137.768 129.337 137.546 129.325L122.199 128.636C121.837 128.618 121.492 128.475 121.224 128.232C120.955 127.989 120.778 127.661 120.724 127.303Z" fill="url(#paint10_linear_307_260)" fill-opacity="0.96"/>
<path opacity="0.6" d="M120.724 127.303C120.665 126.9 120.766 126.489 121.005 126.159C121.244 125.829 121.603 125.606 122.004 125.537C125.113 125.024 132.177 123.982 135.727 124.477C138.376 124.848 139.065 126.384 139.18 127.647C139.198 127.868 139.168 128.091 139.093 128.299C139.018 128.508 138.899 128.698 138.744 128.857C138.59 129.016 138.403 129.14 138.196 129.221C137.989 129.302 137.768 129.337 137.546 129.325L122.199 128.636C121.837 128.618 121.492 128.475 121.224 128.232C120.955 127.989 120.778 127.661 120.724 127.303Z" fill="black"/>
<path d="M129.599 281.574L135.294 285.53L144.823 272.611L139.127 268.664L129.599 281.574Z" fill="#E2CFCC"/>
<path d="M116.317 281.318L122.331 284.745L130.764 271.084L124.751 267.657L116.317 281.318Z" fill="#E2CFCC"/>
<path d="M144.814 272.611L139.904 279.27L134.208 275.322L139.118 268.664L144.814 272.611Z" fill="#E2C8C5"/>
<path d="M124.742 267.657L130.764 271.092L126.42 278.13L120.397 274.695L124.742 267.657Z" fill="#EAD3D0"/>
<path d="M134.402 170.432C134.402 170.432 156.638 198.451 152.461 225.252C149.097 246.896 129.581 276.205 129.581 276.205L120.406 271.649C126.873 258.69 132.392 245.279 136.919 231.522C138.315 227.251 138.723 222.719 138.111 218.267C137.499 213.815 135.884 209.561 133.387 205.825C122.119 189.373 104.069 199.167 116.211 170.432H134.402Z" fill="url(#paint11_linear_307_260)" fill-opacity="0.96"/>
<path opacity="0.6" d="M134.402 170.432C134.402 170.432 156.638 198.451 152.461 225.252C149.097 246.896 129.581 276.205 129.581 276.205L120.406 271.649C126.873 258.69 132.392 245.279 136.919 231.522C138.315 227.251 138.723 222.719 138.111 218.267C137.499 213.815 135.884 209.561 133.387 205.825C122.119 189.373 104.069 199.167 116.211 170.432H134.402Z" fill="black"/>
<path opacity="0.4" d="M145.308 188.429L142.076 185.214C142.076 185.47 148.337 224.122 150.095 234.984C151.132 231.811 151.926 228.564 152.47 225.27C154.536 212.121 150.218 198.69 145.308 188.429Z" fill="black"/>
<path d="M144.328 170.432C144.328 170.432 171.103 205.648 171.862 226.762C172.489 244.424 142.721 278.643 142.721 278.643L134.067 273.044C134.067 273.044 151.49 248.742 155.879 228.891C154.183 209.216 118.331 170.432 118.331 170.432H144.328Z" fill="url(#paint12_linear_307_260)" fill-opacity="0.96"/>
<path opacity="0.6" d="M144.328 170.432C144.328 170.432 171.103 205.648 171.862 226.762C172.489 244.424 142.721 278.643 142.721 278.643L134.067 273.044C134.067 273.044 151.49 248.742 155.879 228.891C154.183 209.216 118.331 170.432 118.331 170.432H144.328Z" fill="black"/>
<path d="M111.204 128.407C108.343 129.087 105.597 139.489 105.597 139.489L116.785 146.96C116.785 146.96 120.512 138.73 119.205 135.127C117.854 131.374 114.798 127.55 111.204 128.407Z" fill="url(#paint13_linear_307_260)" fill-opacity="0.96"/>
<path opacity="0.2" d="M113.395 135.109L112.617 144.178L116.777 146.969C117.925 144.383 118.775 141.675 119.311 138.897L113.395 135.109Z" fill="black"/>
<path d="M147.64 128.61C147.64 128.61 150.943 129.766 144.328 170.423H116.194C116.671 158.943 116.68 151.878 111.205 128.407C115.144 127.595 119.137 127.069 123.152 126.835C127.406 126.53 131.677 126.53 135.93 126.835C141.423 127.338 147.64 128.61 147.64 128.61Z" fill="url(#paint14_linear_307_260)" fill-opacity="0.96"/>
<path d="M150.501 135.109C151.137 136.875 151.808 138.774 152.514 140.602C153.221 142.43 153.892 144.311 154.607 146.165L156.771 151.711L157.318 153.097L157.601 153.786L157.733 154.13C157.733 154.192 157.733 154.192 157.733 154.183C157.572 153.956 157.36 153.768 157.115 153.636C156.766 153.43 156.372 153.312 155.967 153.291C155.631 153.281 155.296 153.344 154.987 153.477C154.581 153.662 154.581 153.742 154.59 153.733C154.663 153.674 154.728 153.606 154.784 153.53C155.273 152.888 155.696 152.199 156.047 151.472C156.462 150.66 156.859 149.794 157.256 148.92C158.034 147.154 158.749 145.326 159.464 143.48C160.179 141.635 160.859 139.772 161.522 137.891L163.535 132.257L166.935 133.14C166.264 137.167 165.398 141.087 164.356 145.079C163.853 147.066 163.261 149.035 162.59 151.022C162.255 152.02 161.884 153.009 161.46 154.024C161.018 155.126 160.474 156.185 159.835 157.186C159.6 157.523 159.34 157.841 159.058 158.139C158.607 158.626 158.06 159.014 157.451 159.279C156.91 159.51 156.325 159.619 155.738 159.596C155.079 159.572 154.438 159.38 153.874 159.04C153.209 158.625 152.657 158.052 152.267 157.371C152.135 157.142 152.02 156.912 151.94 156.744L151.773 156.409L151.437 155.72L150.766 154.351C149.883 152.514 149 150.66 148.232 148.797C147.463 146.933 146.651 145.044 145.891 143.145C145.132 141.246 144.452 139.348 143.807 137.299L150.501 135.109Z" fill="#E2CFCC"/>
<path d="M147.64 128.61C151.022 129.413 154.828 139.41 154.828 139.41L144.77 147.966C144.77 147.966 138.262 137.069 139.578 133.475C140.946 129.731 143.225 127.559 147.64 128.61Z" fill="url(#paint15_linear_307_260)" fill-opacity="0.96"/>
<path d="M165.133 129.095L168.665 126.146L171.12 129.97L169.31 133.157C169.31 133.157 166.431 135.807 163.888 134.456C163.484 133.548 163.388 132.534 163.612 131.567C163.837 130.6 164.371 129.732 165.133 129.095Z" fill="#E2CFCC"/>
<path d="M175.041 126.155L174.776 127.117L169.187 128.053L168.639 126.146L175.041 126.155Z" fill="#E2CFCC"/>
<path d="M143.41 279.093L133.325 272.576L135.135 269.432L146.465 276.4L143.41 279.093Z" fill="url(#paint16_linear_307_260)" fill-opacity="0.96"/>
<path d="M126.278 284.285C125.394 284.177 124.543 283.876 123.788 283.402C123.757 283.391 123.73 283.371 123.711 283.344C123.692 283.317 123.681 283.285 123.681 283.252C123.681 283.219 123.692 283.187 123.711 283.16C123.73 283.133 123.757 283.113 123.788 283.102C124.062 283.014 126.437 282.281 127.126 282.846C127.204 282.91 127.262 282.994 127.297 283.089C127.331 283.184 127.339 283.286 127.32 283.385C127.308 283.544 127.255 283.697 127.167 283.83C127.079 283.963 126.959 284.071 126.817 284.144C126.652 284.234 126.467 284.283 126.278 284.285ZM124.291 283.314C125.395 283.879 126.278 284.082 126.702 283.87C126.795 283.819 126.872 283.745 126.928 283.656C126.983 283.566 127.015 283.464 127.02 283.358C127.02 283.217 127.02 283.155 126.941 283.12C126.57 282.819 125.245 283.049 124.274 283.314H124.291Z" fill="black"/>
<path d="M123.85 283.464C123.803 283.463 123.759 283.444 123.726 283.411C123.713 283.387 123.706 283.359 123.706 283.332C123.706 283.304 123.713 283.277 123.726 283.252C123.726 283.173 124.3 281.256 125.201 280.824C125.316 280.771 125.441 280.744 125.568 280.744C125.694 280.744 125.819 280.771 125.934 280.824C126.058 280.863 126.165 280.942 126.239 281.05C126.313 281.157 126.348 281.286 126.34 281.415C126.278 282.21 124.662 283.305 123.921 283.491L123.85 283.464ZM125.563 281.053C125.477 281.056 125.393 281.077 125.316 281.115C124.768 281.38 124.318 282.413 124.097 283.04C124.874 282.713 125.943 281.848 125.978 281.362C125.978 281.283 125.978 281.186 125.775 281.097C125.709 281.062 125.637 281.038 125.563 281.027V281.053Z" fill="black"/>
<path d="M138.88 288.1C137.882 288.1 136.496 286.82 135.736 286.034C135.717 286.007 135.706 285.974 135.706 285.941C135.706 285.908 135.717 285.875 135.736 285.848C135.754 285.82 135.778 285.797 135.808 285.781C135.837 285.766 135.871 285.758 135.904 285.76C136.257 285.76 139.321 286.219 139.754 287.085C139.8 287.162 139.824 287.251 139.824 287.341C139.824 287.431 139.8 287.519 139.754 287.597C139.689 287.732 139.591 287.848 139.469 287.934C139.347 288.021 139.205 288.075 139.056 288.091L138.88 288.1ZM136.319 286.157C137.432 287.235 138.412 287.835 138.968 287.765C139.066 287.752 139.158 287.715 139.238 287.658C139.319 287.602 139.383 287.526 139.427 287.438C139.447 287.408 139.458 287.372 139.458 287.336C139.458 287.3 139.447 287.265 139.427 287.235C139.198 286.758 137.564 286.352 136.319 286.157Z" fill="black"/>
<path d="M136.416 286.113C136.218 286.119 136.02 286.104 135.824 286.069C135.797 286.065 135.771 286.054 135.75 286.037C135.728 286.02 135.711 285.997 135.701 285.972C135.688 285.946 135.681 285.917 135.681 285.888C135.681 285.859 135.688 285.83 135.701 285.804C135.754 285.742 136.946 284.303 138.076 284.206C138.396 284.181 138.713 284.282 138.959 284.488C139.304 284.789 139.286 285.054 139.198 285.221C138.977 285.822 137.449 286.113 136.416 286.113ZM136.186 285.787C137.175 285.84 138.756 285.513 138.959 285.08C138.959 285.08 139.03 284.939 138.8 284.745C138.709 284.665 138.602 284.605 138.487 284.569C138.371 284.532 138.25 284.52 138.129 284.533C137.368 284.745 136.69 285.186 136.186 285.795V285.787Z" fill="black"/>
<path d="M124.088 282.51L116.6 280.391C116.471 280.352 116.332 280.362 116.21 280.419C116.088 280.476 115.991 280.576 115.938 280.7L113.412 286.378C113.353 286.524 113.325 286.68 113.331 286.837C113.336 286.994 113.375 287.148 113.444 287.289C113.513 287.43 113.611 287.555 113.732 287.655C113.853 287.755 113.994 287.829 114.145 287.871C116.794 288.559 118.066 288.754 121.36 289.699C123.391 290.264 126.287 291.315 129.087 292.109C131.886 292.904 132.822 290.175 131.736 289.593C126.826 286.996 126.437 285.177 125.095 283.234C124.855 282.883 124.499 282.626 124.088 282.51Z" fill="url(#paint17_linear_307_260)" fill-opacity="0.96"/>
<path d="M135.939 285.001L129.546 280.585C129.437 280.506 129.304 280.47 129.17 280.483C129.037 280.496 128.913 280.558 128.822 280.656L124.583 285.213C124.48 285.33 124.403 285.469 124.357 285.619C124.311 285.768 124.298 285.926 124.318 286.082C124.338 286.237 124.391 286.386 124.473 286.52C124.556 286.653 124.665 286.767 124.795 286.855C127.047 288.365 128.212 288.974 131.029 290.926C132.796 292.127 136.213 294.794 138.597 296.454C140.982 298.114 142.757 295.836 141.909 294.935C138.112 290.882 137.282 288.339 136.655 286.034C136.546 285.616 136.292 285.25 135.939 285.001Z" fill="url(#paint18_linear_307_260)" fill-opacity="0.96"/>
<path d="M130.755 276.788L119.231 271.057L120.424 267.931L132.734 273.971L130.755 276.788Z" fill="url(#paint19_linear_307_260)" fill-opacity="0.96"/>
<path d="M115.77 168.771L114.799 171.315C114.701 171.509 114.931 171.712 115.258 171.712H144.47C144.726 171.712 144.938 171.588 144.955 171.43L145.203 168.904C145.203 168.736 144.999 168.586 144.726 168.586H116.229C116.143 168.578 116.057 168.591 115.977 168.623C115.897 168.655 115.826 168.706 115.77 168.771Z" fill="url(#paint20_linear_307_260)" fill-opacity="0.96"/>
<path opacity="0.4" d="M115.77 168.771L114.799 171.315C114.701 171.509 114.931 171.712 115.258 171.712H144.47C144.726 171.712 144.938 171.588 144.955 171.43L145.203 168.904C145.203 168.736 144.999 168.586 144.726 168.586H116.229C116.143 168.578 116.057 168.591 115.977 168.623C115.897 168.655 115.826 168.706 115.77 168.771Z" fill="white"/>
<path d="M120.371 171.959H119.603C119.452 171.959 119.338 171.88 119.346 171.783L119.708 168.507C119.708 168.418 119.85 168.339 120 168.339H120.768C120.918 168.339 121.033 168.418 121.024 168.507L120.662 171.783C120.653 171.88 120.521 171.959 120.371 171.959Z" fill="url(#paint21_linear_307_260)" fill-opacity="0.96"/>
<path d="M138.385 171.959H137.626C137.476 171.959 137.361 171.88 137.37 171.783L137.723 168.507C137.723 168.418 137.873 168.339 138.023 168.339H138.783C138.933 168.339 139.056 168.418 139.039 168.507L138.685 171.783C138.641 171.88 138.544 171.959 138.385 171.959Z" fill="url(#paint22_linear_307_260)" fill-opacity="0.96"/>
<g style="mix-blend-mode:multiply">
<path d="M119.7 321.507C132.765 321.507 143.357 320.74 143.357 319.793C143.357 318.847 132.765 318.08 119.7 318.08C106.634 318.08 96.0422 318.847 96.0422 319.793C96.0422 320.74 106.634 321.507 119.7 321.507Z" fill="#F5F5F5"/>
</g>
<path d="M134.111 317.374C129.925 316.155 125.28 314.592 122.472 312.958C122.393 312.905 122.305 312.879 122.225 312.835V293.884H130.694C131.337 293.846 131.941 293.564 132.382 293.095C132.824 292.627 133.07 292.007 133.07 291.363C133.07 290.719 132.824 290.099 132.382 289.631C131.941 289.162 131.337 288.88 130.694 288.842H122.269V202.46H117.183V288.842H108.767C108.424 288.822 108.079 288.872 107.756 288.989C107.432 289.107 107.136 289.289 106.886 289.525C106.635 289.761 106.436 290.046 106.299 290.362C106.163 290.678 106.092 291.019 106.092 291.363C106.092 291.707 106.163 292.048 106.299 292.364C106.436 292.68 106.635 292.965 106.886 293.201C107.136 293.437 107.432 293.619 107.756 293.737C108.079 293.854 108.424 293.905 108.767 293.884H117.183V312.808C117.103 312.808 117.024 312.879 116.944 312.932C114.092 314.592 109.482 316.155 105.297 317.347C105.014 317.433 104.771 317.617 104.612 317.866C104.453 318.115 104.389 318.412 104.431 318.705C104.472 318.997 104.617 319.265 104.839 319.46C105.061 319.655 105.346 319.764 105.641 319.767H133.767C134.049 319.748 134.316 319.632 134.524 319.44C134.731 319.247 134.866 318.99 134.906 318.71C134.947 318.43 134.89 318.144 134.745 317.901C134.6 317.658 134.377 317.472 134.111 317.374Z" fill="#E4DB94"/>
<path d="M135.409 193.665H104.007C101.481 193.665 99.4331 195.713 99.4331 198.239V207.573C99.4331 210.1 101.481 212.148 104.007 212.148H135.409C137.936 212.148 139.983 210.1 139.983 207.573V198.239C139.983 195.713 137.936 193.665 135.409 193.665Z" fill="#BAA732"/>
<path d="M103.716 212.156V213.764C103.716 215.088 105.155 216.166 106.922 216.166H132.531C134.297 216.166 135.736 215.088 135.736 213.764V212.156H103.716Z" fill="url(#paint23_linear_307_260)" fill-opacity="0.96"/>
<path opacity="0.3" d="M103.716 212.156V213.764C103.716 215.088 105.155 216.166 106.922 216.166H132.531C134.297 216.166 135.736 215.088 135.736 213.764V212.156H103.716Z" fill="white"/>
<defs>
<linearGradient id="paint0_linear_307_260" x1="213.424" y1="13.7493" x2="213.424" y2="14.6589" gradientUnits="userSpaceOnUse">
<stop stop-color="#D2C679"/>
<stop offset="1" stop-color="#F6F3CD"/>
</linearGradient>
<linearGradient id="paint1_linear_307_260" x1="288.949" y1="57.3267" x2="289.858" y2="57.3676" gradientUnits="userSpaceOnUse">
<stop stop-color="#D2C679"/>
<stop offset="1" stop-color="#F6F3CD"/>
</linearGradient>
<linearGradient id="paint2_linear_307_260" x1="230.586" y1="17.8291" x2="230.586" y2="234.816" gradientUnits="userSpaceOnUse">
<stop stop-color="#D2C679"/>
<stop offset="1" stop-color="#F6F3CD"/>
</linearGradient>
<linearGradient id="paint3_linear_307_260" x1="224.365" y1="23.7898" x2="224.365" y2="240.777" gradientUnits="userSpaceOnUse">
<stop stop-color="#D2C679"/>
<stop offset="1" stop-color="#F6F3CD"/>
</linearGradient>
<linearGradient id="paint4_linear_307_260" x1="205.079" y1="106.312" x2="205.079" y2="113.739" gradientUnits="userSpaceOnUse">
<stop stop-color="#D2C679"/>
<stop offset="1" stop-color="#F6F3CD"/>
</linearGradient>
<linearGradient id="paint5_linear_307_260" x1="220.793" y1="202.257" x2="220.793" y2="222.153" gradientUnits="userSpaceOnUse">
<stop stop-color="#D2C679"/>
<stop offset="1" stop-color="#F6F3CD"/>
</linearGradient>
<linearGradient id="paint6_linear_307_260" x1="198.853" y1="151.119" x2="198.853" y2="158.554" gradientUnits="userSpaceOnUse">
<stop stop-color="#D2C679"/>
<stop offset="1" stop-color="#F6F3CD"/>
</linearGradient>
<linearGradient id="paint7_linear_307_260" x1="246.12" y1="40.9034" x2="246.12" y2="52.9222" gradientUnits="userSpaceOnUse">
<stop stop-color="#D2C679"/>
<stop offset="1" stop-color="#F6F3CD"/>
</linearGradient>
<linearGradient id="paint8_linear_307_260" x1="221.463" y1="50.8297" x2="233.971" y2="63.621" gradientUnits="userSpaceOnUse">
<stop stop-color="#D2C679"/>
<stop offset="1" stop-color="#F6F3CD"/>
</linearGradient>
<linearGradient id="paint9_linear_307_260" x1="226.789" y1="71.025" x2="226.789" y2="87.4243" gradientUnits="userSpaceOnUse">
<stop stop-color="#D2C679"/>
<stop offset="1" stop-color="#F6F3CD"/>
</linearGradient>
<linearGradient id="paint10_linear_307_260" x1="129.946" y1="124.347" x2="129.946" y2="129.327" gradientUnits="userSpaceOnUse">
<stop stop-color="#BAA732"/>
<stop offset="1" stop-color="#653346" stop-opacity="0"/>
</linearGradient>
<linearGradient id="paint11_linear_307_260" x1="132.579" y1="170.432" x2="132.579" y2="276.205" gradientUnits="userSpaceOnUse">
<stop stop-color="#BAA732"/>
<stop offset="1" stop-color="#653346" stop-opacity="0"/>
</linearGradient>
<linearGradient id="paint12_linear_307_260" x1="145.101" y1="170.432" x2="145.101" y2="278.643" gradientUnits="userSpaceOnUse">
<stop stop-color="#BAA732"/>
<stop offset="1" stop-color="#653346" stop-opacity="0"/>
</linearGradient>
<linearGradient id="paint13_linear_307_260" x1="112.54" y1="128.285" x2="112.54" y2="146.96" gradientUnits="userSpaceOnUse">
<stop stop-color="#BAA732"/>
<stop offset="1" stop-color="#653346" stop-opacity="0"/>
</linearGradient>
<linearGradient id="paint14_linear_307_260" x1="129.835" y1="126.606" x2="129.835" y2="170.423" gradientUnits="userSpaceOnUse">
<stop stop-color="#BAA732"/>
<stop offset="1" stop-color="#653346" stop-opacity="0"/>
</linearGradient>
<linearGradient id="paint15_linear_307_260" x1="147.115" y1="128.345" x2="147.115" y2="147.966" gradientUnits="userSpaceOnUse">
<stop stop-color="#BAA732"/>
<stop offset="1" stop-color="#653346" stop-opacity="0"/>
</linearGradient>
<linearGradient id="paint16_linear_307_260" x1="139.895" y1="269.432" x2="139.895" y2="279.093" gradientUnits="userSpaceOnUse">
<stop stop-color="#BAA732"/>
<stop offset="1" stop-color="#653346" stop-opacity="0"/>
</linearGradient>
<linearGradient id="paint17_linear_307_260" x1="122.753" y1="280.367" x2="122.753" y2="292.253" gradientUnits="userSpaceOnUse">
<stop stop-color="#BAA732"/>
<stop offset="1" stop-color="#653346" stop-opacity="0"/>
</linearGradient>
<linearGradient id="paint18_linear_307_260" x1="133.216" y1="280.48" x2="133.216" y2="297.044" gradientUnits="userSpaceOnUse">
<stop stop-color="#BAA732"/>
<stop offset="1" stop-color="#653346" stop-opacity="0"/>
</linearGradient>
<linearGradient id="paint19_linear_307_260" x1="125.982" y1="267.931" x2="125.982" y2="276.788" gradientUnits="userSpaceOnUse">
<stop stop-color="#BAA732"/>
<stop offset="1" stop-color="#653346" stop-opacity="0"/>
</linearGradient>
<linearGradient id="paint20_linear_307_260" x1="129.989" y1="168.584" x2="129.989" y2="171.712" gradientUnits="userSpaceOnUse">
<stop stop-color="#BAA732"/>
<stop offset="1" stop-color="#653346" stop-opacity="0"/>
</linearGradient>
<linearGradient id="paint21_linear_307_260" x1="120.185" y1="168.339" x2="120.185" y2="171.959" gradientUnits="userSpaceOnUse">
<stop stop-color="#BAA732"/>
<stop offset="1" stop-color="#653346" stop-opacity="0"/>
</linearGradient>
<linearGradient id="paint22_linear_307_260" x1="138.205" y1="168.339" x2="138.205" y2="171.959" gradientUnits="userSpaceOnUse">
<stop stop-color="#BAA732"/>
<stop offset="1" stop-color="#653346" stop-opacity="0"/>
</linearGradient>
<linearGradient id="paint23_linear_307_260" x1="119.726" y1="212.156" x2="119.726" y2="216.166" gradientUnits="userSpaceOnUse">
<stop stop-color="#BAA732"/>
<stop offset="1" stop-color="#653346" stop-opacity="0"/>
</linearGradient>
</defs>
</svg>
