<svg width="56" height="48" viewBox="0 0 56 48" fill="none" xmlns="http://www.w3.org/2000/svg">
<path d="M28.0029 10C23.8343 10 20.4406 14.1283 20.4406 19.1747C20.4406 22.3672 21.8006 25.186 23.8542 26.8291C21.3739 27.8288 19.2277 29.6972 17.6536 32.1416C16.7833 31.3347 15.8109 30.6857 14.7626 30.2207C16.3523 28.798 17.3911 26.5128 17.3911 23.9443C17.3911 19.6643 14.5195 16.1605 10.9904 16.1605C7.4614 16.1605 4.58982 19.6643 4.58982 23.9443C4.58982 26.5142 5.62951 28.8006 7.22051 30.2232C3.00831 32.0969 0 37.0025 0 42.7758V46.8313C0.00043113 47.1405 0.10302 47.4367 0.284919 47.6544C0.466816 47.8726 0.712947 47.9942 0.969418 47.9932H15.7296C15.7654 47.9979 15.8011 48.0005 15.8369 47.9999H40.1698C40.2055 48.0005 40.2417 47.9979 40.2771 47.9932H55.0383C55.569 47.9906 55.9987 47.4715 56 46.8313V42.7758C56 37.0025 52.9969 32.0969 48.7869 30.2227C50.3779 28.8006 51.4176 26.5137 51.4176 23.9438C51.4176 19.6637 48.546 16.16 45.0169 16.16C41.488 16.16 38.6163 19.6637 38.6163 23.9438C38.6163 26.5122 39.6556 28.7979 41.2453 30.2201C40.1948 30.6862 39.2219 31.3373 38.3504 32.1463C36.777 29.7004 34.6339 27.8294 32.1537 26.8291C34.2067 25.186 35.5672 22.3672 35.5672 19.1747C35.5672 14.1283 32.1718 10 28.0032 10H28.0029ZM28.0029 12.3278C31.1207 12.3278 33.6341 15.378 33.6341 19.1747C33.6341 22.9419 31.1599 25.9623 28.0766 26.0107C28.0521 26.0107 28.0279 26.0066 28.0029 26.0066C27.9779 26.0066 27.9542 26.0107 27.9292 26.0107C24.846 25.9629 22.3734 22.942 22.3734 19.1747C22.3734 15.3774 24.8847 12.3278 28.0025 12.3278H28.0029ZM10.9906 18.4882C13.4643 18.4882 15.4601 20.9085 15.4601 23.9442C15.4601 26.9594 13.4902 29.3694 11.0397 29.4021C11.0233 29.4021 11.0073 29.4 10.9905 29.4C10.9741 29.4 10.9582 29.4021 10.9414 29.4021C8.49088 29.3693 6.52095 26.9589 6.52095 23.9442C6.52095 20.9087 8.5167 18.4882 10.9905 18.4882H10.9906ZM45.0164 18.4882C47.4902 18.4882 49.4859 20.9085 49.4859 23.9442C49.4859 26.9594 47.516 29.3694 45.0655 29.4021C45.0491 29.4021 45.0331 29.4 45.0163 29.4C45 29.4 44.984 29.4021 44.9672 29.4021C42.5167 29.3693 40.5468 26.9589 40.5468 23.9442C40.5468 20.9087 42.5425 18.4882 45.0163 18.4882H45.0164ZM27.929 28.3385C27.9535 28.339 27.9777 28.3426 28.0027 28.3426C28.0273 28.3426 28.0514 28.3385 28.0764 28.3385C34.2598 28.3863 39.2083 34.4028 39.2083 41.9344L39.2079 45.6714H16.7984V41.9344C16.7984 34.4021 21.7455 28.3863 27.9281 28.3385H27.929ZM10.9166 31.7326C10.9412 31.7331 10.9653 31.7367 10.9903 31.7367C11.0153 31.7367 11.039 31.7326 11.064 31.7326C13.1555 31.7528 15.0642 32.6221 16.584 34.0765C15.4964 36.3961 14.8675 39.0735 14.8675 41.935V45.6632H1.93031V42.7757C1.93031 36.6547 5.9227 31.7803 10.9164 31.732L10.9166 31.7326ZM44.9424 31.7326C44.9674 31.7331 44.9911 31.7367 45.0161 31.7367C45.0411 31.7367 45.0649 31.7326 45.0899 31.7326C50.0835 31.7804 54.0759 36.6554 54.0759 42.7762V45.6632H41.1321L41.1317 41.935C41.1317 39.0751 40.5045 36.3997 39.4191 34.0806C40.9394 32.6242 42.8494 31.7528 44.9426 31.7326H44.9424Z" fill="white"/>
</svg>
