<svg width="1027" height="346" viewBox="0 0 1027 346" fill="none" xmlns="http://www.w3.org/2000/svg">
<ellipse cx="512.658" cy="200.226" rx="85.6576" ry="82.2256" fill="#E8E14F"/>
<ellipse cx="513.112" cy="200.11" rx="66.2797" ry="61.7036" fill="#F4F4F4"/>
<path d="M494.874 221.436C492.538 221.436 490.426 221.036 488.538 220.236C486.682 219.436 485.21 218.284 484.122 216.78C483.034 215.276 482.474 213.5 482.442 211.452H489.642C489.738 212.828 490.218 213.916 491.082 214.716C491.978 215.516 493.194 215.916 494.73 215.916C496.298 215.916 497.53 215.548 498.426 214.812C499.322 214.044 499.77 213.052 499.77 211.836C499.77 210.844 499.466 210.028 498.858 209.388C498.25 208.748 497.482 208.252 496.554 207.9C495.658 207.516 494.41 207.1 492.81 206.652C490.634 206.012 488.858 205.388 487.482 204.78C486.138 204.14 484.97 203.196 483.978 201.948C483.018 200.668 482.538 198.972 482.538 196.86C482.538 194.876 483.034 193.148 484.026 191.676C485.018 190.204 486.41 189.084 488.202 188.316C489.994 187.516 492.042 187.116 494.346 187.116C497.802 187.116 500.602 187.964 502.746 189.66C504.922 191.324 506.122 193.66 506.346 196.668H498.954C498.89 195.516 498.394 194.572 497.466 193.836C496.57 193.068 495.37 192.684 493.866 192.684C492.554 192.684 491.498 193.02 490.698 193.692C489.93 194.364 489.546 195.34 489.546 196.62C489.546 197.516 489.834 198.268 490.41 198.876C491.018 199.452 491.754 199.932 492.618 200.316C493.514 200.668 494.762 201.084 496.362 201.564C498.538 202.204 500.314 202.844 501.69 203.484C503.066 204.124 504.25 205.084 505.242 206.364C506.234 207.644 506.73 209.324 506.73 211.404C506.73 213.196 506.266 214.86 505.338 216.396C504.41 217.932 503.05 219.164 501.258 220.092C499.466 220.988 497.338 221.436 494.874 221.436ZM513.9 213.516C516.972 210.956 519.42 208.828 521.244 207.132C523.068 205.404 524.588 203.612 525.804 201.756C527.02 199.9 527.628 198.076 527.628 196.284C527.628 194.652 527.244 193.372 526.476 192.444C525.708 191.516 524.524 191.052 522.924 191.052C521.324 191.052 520.092 191.596 519.228 192.684C518.364 193.74 517.916 195.196 517.884 197.052H511.356C511.484 193.212 512.62 190.3 514.764 188.316C516.94 186.332 519.692 185.34 523.02 185.34C526.668 185.34 529.468 186.316 531.42 188.268C533.372 190.188 534.348 192.732 534.348 195.9C534.348 198.396 533.676 200.78 532.332 203.052C530.988 205.324 529.452 207.308 527.724 209.004C525.996 210.668 523.74 212.684 520.956 215.052H535.116V220.62H511.404V215.628L513.9 213.516Z" fill="#C4B34F"/>
<path d="M365.807 176.193C365.807 198.355 361.08 220.301 351.895 240.776C342.71 261.251 329.247 279.855 312.276 295.526C295.304 311.198 275.156 323.629 252.982 332.11C230.807 340.591 207.041 344.956 183.039 344.956C159.038 344.956 135.271 340.591 113.097 332.11C90.9224 323.629 70.7741 311.198 53.8026 295.526C36.831 279.855 23.3684 261.251 14.1834 240.776C4.99843 220.3 0.270994 198.355 0.270996 176.193H36.8246C36.8246 193.923 40.6066 211.479 47.9545 227.859C55.3025 244.239 66.0726 259.123 79.6499 271.66C93.2271 284.197 109.346 294.141 127.085 300.926C144.825 307.711 163.838 311.203 183.039 311.203C202.24 311.203 221.253 307.711 238.993 300.926C256.733 294.141 272.851 284.197 286.428 271.66C300.006 259.123 310.776 244.239 318.124 227.859C325.472 211.479 329.254 193.923 329.254 176.193H365.807Z" fill="#BAA732"/>
<path d="M1026.63 168.763C1026.63 190.925 1021.87 212.871 1012.63 233.346C1003.39 253.821 989.847 272.426 972.774 288.097C955.7 303.768 935.431 316.199 913.123 324.68C890.816 333.161 866.907 337.526 842.761 337.526C818.615 337.526 794.706 333.161 772.398 324.68C750.091 316.199 729.822 303.768 712.748 288.097C695.675 272.426 682.131 253.821 672.891 233.346C663.651 212.871 658.895 190.925 658.895 168.763H695.668C695.668 186.493 699.473 204.049 706.865 220.429C714.257 236.81 725.092 251.693 738.751 264.23C752.409 276.767 768.625 286.712 786.471 293.497C804.317 300.281 823.444 303.774 842.761 303.774C862.077 303.774 881.205 300.281 899.051 293.497C916.897 286.712 933.112 276.767 946.771 264.23C960.43 251.693 971.265 236.81 978.657 220.429C986.049 204.049 989.854 186.493 989.854 168.763H1026.63Z" fill="#FFFBA0"/>
<path d="M329.815 176.875C329.785 154.703 334.486 132.739 343.649 112.24C352.813 91.7398 366.261 73.1047 383.224 57.3983C400.187 41.692 420.333 29.222 442.513 20.7002C464.693 12.1785 488.471 7.77204 512.491 7.73233C536.511 7.69262 560.302 12.0205 582.505 20.4688C604.708 28.9171 624.889 41.3205 641.895 56.9707C658.901 72.6209 672.399 91.2114 681.62 111.681C690.84 132.15 695.601 154.098 695.631 176.27L659.05 176.331C659.025 158.593 655.216 141.035 647.84 124.659C640.464 108.284 629.665 93.4112 616.061 80.8911C602.456 68.3709 586.311 58.4482 568.549 51.6896C550.786 44.9309 531.754 41.4686 512.538 41.5004C493.322 41.5322 474.299 45.0574 456.555 51.8747C438.811 58.6921 422.694 68.6681 409.124 81.2332C395.553 93.7983 384.795 108.706 377.464 125.106C370.133 141.506 366.372 159.077 366.397 176.815L329.815 176.875Z" fill="#E8E14F"/>
<ellipse cx="183.658" cy="138.226" rx="85.6576" ry="82.2256" fill="#BAA732"/>
<ellipse cx="184.112" cy="138.11" rx="66.2797" ry="61.7036" fill="#F4F4F4"/>
<path d="M173.054 159.436C170.718 159.436 168.606 159.036 166.718 158.236C164.862 157.436 163.39 156.284 162.302 154.78C161.214 153.276 160.654 151.5 160.622 149.452H167.822C167.918 150.828 168.398 151.916 169.262 152.716C170.158 153.516 171.374 153.916 172.91 153.916C174.478 153.916 175.71 153.548 176.606 152.812C177.502 152.044 177.95 151.052 177.95 149.836C177.95 148.844 177.646 148.028 177.038 147.388C176.43 146.748 175.662 146.252 174.734 145.9C173.838 145.516 172.59 145.1 170.99 144.652C168.814 144.012 167.038 143.388 165.662 142.78C164.318 142.14 163.15 141.196 162.158 139.948C161.198 138.668 160.718 136.972 160.718 134.86C160.718 132.876 161.214 131.148 162.206 129.676C163.198 128.204 164.59 127.084 166.382 126.316C168.174 125.516 170.222 125.116 172.526 125.116C175.982 125.116 178.782 125.964 180.926 127.66C183.102 129.324 184.302 131.66 184.526 134.668H177.134C177.07 133.516 176.574 132.572 175.646 131.836C174.75 131.068 173.55 130.684 172.046 130.684C170.734 130.684 169.678 131.02 168.878 131.692C168.11 132.364 167.726 133.34 167.726 134.62C167.726 135.516 168.014 136.268 168.59 136.876C169.198 137.452 169.934 137.932 170.798 138.316C171.694 138.668 172.942 139.084 174.542 139.564C176.718 140.204 178.494 140.844 179.87 141.484C181.246 142.124 182.43 143.084 183.422 144.364C184.414 145.644 184.91 147.324 184.91 149.404C184.91 151.196 184.446 152.86 183.518 154.396C182.59 155.932 181.23 157.164 179.438 158.092C177.646 158.988 175.518 159.436 173.054 159.436ZM189.152 130.3V124.108H200.72V159.1H193.808V130.3H189.152Z" fill="#BAA732"/>
<ellipse cx="842.658" cy="138.226" rx="85.6576" ry="82.2256" fill="#FFFBA0"/>
<ellipse cx="843.112" cy="138.11" rx="66.2797" ry="61.7036" fill="#F4F4F4"/>
<path d="M824.874 159.436C822.538 159.436 820.426 159.036 818.538 158.236C816.682 157.436 815.21 156.284 814.122 154.78C813.034 153.276 812.474 151.5 812.442 149.452H819.642C819.738 150.828 820.218 151.916 821.082 152.716C821.978 153.516 823.194 153.916 824.73 153.916C826.298 153.916 827.53 153.548 828.426 152.812C829.322 152.044 829.77 151.052 829.77 149.836C829.77 148.844 829.466 148.028 828.858 147.388C828.25 146.748 827.482 146.252 826.554 145.9C825.658 145.516 824.41 145.1 822.81 144.652C820.634 144.012 818.858 143.388 817.482 142.78C816.138 142.14 814.97 141.196 813.978 139.948C813.018 138.668 812.538 136.972 812.538 134.86C812.538 132.876 813.034 131.148 814.026 129.676C815.018 128.204 816.41 127.084 818.202 126.316C819.994 125.516 822.042 125.116 824.346 125.116C827.802 125.116 830.602 125.964 832.746 127.66C834.922 129.324 836.122 131.66 836.346 134.668H828.954C828.89 133.516 828.394 132.572 827.466 131.836C826.57 131.068 825.37 130.684 823.866 130.684C822.554 130.684 821.498 131.02 820.698 131.692C819.93 132.364 819.546 133.34 819.546 134.62C819.546 135.516 819.834 136.268 820.41 136.876C821.018 137.452 821.754 137.932 822.618 138.316C823.514 138.668 824.762 139.084 826.362 139.564C828.538 140.204 830.314 140.844 831.69 141.484C833.066 142.124 834.25 143.084 835.242 144.364C836.234 145.644 836.73 147.324 836.73 149.404C836.73 151.196 836.266 152.86 835.338 154.396C834.41 155.932 833.05 157.164 831.258 158.092C829.466 158.988 827.338 159.436 824.874 159.436ZM841.884 133.324C842.044 130.124 843.164 127.66 845.244 125.932C847.356 124.172 850.124 123.292 853.548 123.292C855.884 123.292 857.884 123.708 859.548 124.54C861.212 125.34 862.46 126.444 863.292 127.852C864.156 129.228 864.588 130.796 864.588 132.556C864.588 134.572 864.06 136.284 863.004 137.692C861.98 139.068 860.748 139.996 859.308 140.476V140.668C861.164 141.244 862.604 142.268 863.628 143.74C864.684 145.212 865.212 147.1 865.212 149.404C865.212 151.324 864.764 153.036 863.868 154.54C863.004 156.044 861.708 157.228 859.98 158.092C858.284 158.924 856.236 159.34 853.836 159.34C850.22 159.34 847.276 158.428 845.004 156.604C842.732 154.78 841.532 152.092 841.404 148.54H847.932C847.996 150.108 848.524 151.372 849.516 152.332C850.54 153.26 851.932 153.724 853.692 153.724C855.324 153.724 856.572 153.276 857.436 152.38C858.332 151.452 858.78 150.268 858.78 148.828C858.78 146.908 858.172 145.532 856.956 144.7C855.74 143.868 853.852 143.452 851.292 143.452H849.9V137.932H851.292C855.836 137.932 858.108 136.412 858.108 133.372C858.108 131.996 857.692 130.924 856.86 130.156C856.06 129.388 854.892 129.004 853.356 129.004C851.852 129.004 850.684 129.42 849.852 130.252C849.052 131.052 848.588 132.076 848.46 133.324H841.884Z" fill="#C4B34F"/>
</svg>
