<svg xmlns="http://www.w3.org/2000/svg" width="28.756" height="27" viewBox="0 0 28.756 27">
  <g id="Group_39997" data-name="Group 39997" transform="translate(-1517.035 -99)">
    <g id="Group_39994" data-name="Group 39994" transform="translate(2262.835 -124.398)">
      <path id="Path_22977" data-name="Path 22977" d="M-718.115,230.151q-10.3,0-20.6.005c-.21,0-.3-.044-.356-.264-.512-1.922-1.04-3.84-1.563-5.758a.868.868,0,0,0-.954-.727c-1.031,0-2.061.02-3.091-.008a1.062,1.062,0,0,0-1.125.626v.449a1.056,1.056,0,0,0,1.125.626c.767-.03,1.536,0,2.3-.014.216-.005.281.077.331.263q2.256,8.3,4.525,16.594a.265.265,0,0,1-.148.369,2.38,2.38,0,0,0-1.267,2.357,2.394,2.394,0,0,0,1.6,2.147c.223.091.235.166.176.37a2.513,2.513,0,0,0,1.875,3.136,2.537,2.537,0,0,0,3.037-2.011,2.962,2.962,0,0,0-.092-1.286h7.02c-.02.079-.036.142-.051.205a2.394,2.394,0,0,0,.8,2.531,2.372,2.372,0,0,0,2.645.4,2.4,2.4,0,0,0,1.519-2.208,2.514,2.514,0,0,0-2.6-2.632q-6.6,0-13.206,0c-.085,0-.169,0-.253,0a.84.84,0,0,1-.758-.608.8.8,0,0,1,.28-.878,1.2,1.2,0,0,1,.7-.235q4.207-.4,8.411-.818,4.15-.41,8.3-.829a.854.854,0,0,0,.819-.75q.82-4.925,1.636-9.85C-716.937,230.5-717.251,230.151-718.115,230.151Zm-4.816,16.861a.854.854,0,0,1,.848.83.856.856,0,0,1-.823.856.855.855,0,0,1-.862-.845A.854.854,0,0,1-722.93,247.012Zm-11.809,0a.855.855,0,0,1,.855.824.856.856,0,0,1-.847.862.856.856,0,0,1-.84-.839A.853.853,0,0,1-734.74,247.012Zm2.54-9.331a.85.85,0,0,1-.837.9.846.846,0,0,1-.848-.889q0-1.642,0-3.283a.845.845,0,0,1,.85-.886.845.845,0,0,1,.834.874c.005.561,0,1.122,0,1.683C-732.2,236.615-732.2,237.148-732.2,237.681Zm5.058,0a.85.85,0,0,1-.834.9.85.85,0,0,1-.851-.913q0-1.613,0-3.228a.85.85,0,0,1,.847-.916.853.853,0,0,1,.838.927c0,.533,0,1.067,0,1.6S-727.138,237.135-727.141,237.678Zm5.058-.014a.85.85,0,0,1-.848.916.854.854,0,0,1-.837-.928c0-.533,0-1.067,0-1.6s0-1.067,0-1.6a.853.853,0,0,1,.834-.93.849.849,0,0,1,.85.914Q-722.078,236.051-722.083,237.665Z" transform="translate(0 0)" fill="#fdfdff"/>
    </g>
  </g>
</svg>
