<svg width="65" height="56" viewBox="0 0 65 56" fill="none" xmlns="http://www.w3.org/2000/svg">
<path d="M43.8078 31.9433C43.3836 31.9433 42.9897 31.8395 42.6398 31.6727V31.6771C42.6398 32.2706 42.3804 32.828 41.9097 33.2455C41.4391 33.664 40.8127 33.8947 40.1461 33.8947C39.7157 33.8947 39.3168 33.7884 38.9632 33.6172C38.9275 34.1601 38.6834 34.6676 38.248 35.0552C37.7773 35.4738 37.151 35.7045 36.4839 35.7045C35.1586 35.7045 34.0823 34.778 34.0048 33.6168C33.5947 33.8139 33.1311 33.9172 32.6529 33.8899C31.3491 33.8139 30.3281 32.8122 30.3281 31.6088V21.6344L29.0509 23.6021C28.5644 24.3547 27.6538 24.822 26.6734 24.822C26.1957 24.822 25.7238 24.7105 25.3058 24.4975C24.7853 24.2292 24.413 23.7985 24.2582 23.2831C24.1025 22.7675 24.183 22.2282 24.484 21.7661C24.4844 21.7661 28.6628 15.3315 28.9177 14.9362C28.948 14.8768 29.0344 14.7044 29.1078 14.5575C29.178 14.4173 29.2382 14.2733 29.2958 14.1286C30.5559 10.9651 33.676 8.99998 37.439 8.99998C42.3255 8.99998 46.3009 12.8335 46.3009 17.5455L46.3014 29.7253C46.3014 30.3181 46.0424 30.8751 45.5721 31.294C45.1014 31.7126 44.4751 31.9433 43.8077 31.9433L43.8078 31.9433ZM37.439 10.1783C34.2057 10.1783 31.6285 11.8024 30.5448 14.5227C30.4755 14.6955 30.4033 14.8682 30.319 15.0365C30.0745 15.5241 30.0745 15.5241 30.0056 15.5942L29.9965 15.5872C29.6553 16.1597 28.6418 17.7206 25.6313 22.3558C25.5076 22.5459 25.4748 22.7667 25.5379 22.9778C25.6018 23.1889 25.755 23.3668 25.9671 23.4757C26.6254 23.8119 27.5269 23.5949 27.9021 23.0136L30.417 19.1416C30.5672 18.911 30.8711 18.7976 31.1624 18.8678C31.4522 18.9368 31.6535 19.1704 31.6535 19.4369V31.6092C31.6535 32.1835 32.1407 32.6792 32.7397 32.7142C33.085 32.7305 33.4071 32.6275 33.6491 32.4127C33.8691 32.2171 33.9903 31.9565 33.9903 31.6778V23.717C33.9903 23.3914 34.2871 23.1275 34.6532 23.1275C35.0192 23.1275 35.316 23.3911 35.316 23.717L35.3156 33.4873C35.3156 34.0601 35.8398 34.5263 36.484 34.5263C36.7969 34.5263 37.0908 34.4185 37.3112 34.2229C37.5312 34.0269 37.6524 33.7656 37.6524 33.4873V23.717C37.6524 23.3914 37.9487 23.1275 38.3152 23.1275C38.6813 23.1275 38.9781 23.3911 38.9781 23.717L38.9777 31.5862V31.6778C38.9777 32.2503 39.5019 32.7164 40.1465 32.7164C40.4591 32.7164 40.7521 32.6083 40.9737 32.4119C41.1937 32.2166 41.3149 31.9561 41.3149 31.6774V23.7166C41.3149 23.391 41.6113 23.1271 41.9778 23.1271C42.3439 23.1271 42.6406 23.3907 42.6406 23.7166L42.6398 29.7256C42.6398 30.2988 43.164 30.765 43.8078 30.765C44.1211 30.765 44.4142 30.6568 44.6341 30.4616C44.855 30.2652 44.9757 30.0039 44.9757 29.7256L44.9762 17.5458C44.9762 13.4838 41.5951 10.1785 37.439 10.1785L37.439 10.1783Z" fill="white"/>
<path d="M17.765 40.4086L27.3836 35.2773C28.5433 34.6579 30.0354 34.9211 30.7792 35.8767C31.0507 36.2248 31.1893 36.6304 31.2109 37.0435C31.5695 36.877 31.9597 36.7866 32.3569 36.7866C32.5603 36.7866 32.7645 36.8091 32.9662 36.8537C33.6124 36.9973 34.157 37.3565 34.4995 37.8643C34.8423 38.3729 34.9423 38.969 34.7809 39.543C34.6319 40.0742 34.2687 40.5212 33.7636 40.8279C34.1168 41.0132 34.4214 41.266 34.6381 41.5879C34.9809 42.0965 35.081 42.6923 34.9199 43.267C34.7585 43.8409 34.3546 44.3252 33.7827 44.6305L33.7793 44.6323C34.1263 44.8172 34.4256 45.0675 34.6398 45.3846C34.983 45.8932 35.0831 46.4892 34.9216 47.0639C34.7597 47.6383 34.3559 48.1225 33.7848 48.4274L22.0403 54.693C19.8483 55.8619 17.3143 56.2654 14.9061 55.828C12.4764 55.3866 10.4641 54.1446 9.24057 52.3307C7.30426 49.461 7.59445 46.0704 9.9964 43.4826C10.1064 43.3644 10.2147 43.2441 10.3131 43.1194C10.4173 42.9876 10.5389 42.8326 10.5804 42.7794C10.829 42.3845 14.8859 35.8845 14.8855 35.8853C15.2951 35.2279 16.063 34.8558 16.8549 34.8562C17.2243 34.8562 17.5991 34.937 17.9449 35.1076C18.3624 35.315 18.7132 35.6173 18.9585 35.9816C19.4628 36.729 19.4806 37.6644 19.0058 38.4213L17.765 40.4086ZM17.8227 36.5876C17.694 36.3967 17.5172 36.2447 17.301 36.1369C16.8539 35.9169 16.2911 36.0601 16.045 36.4562C13.1421 41.1069 12.1525 42.6918 11.7706 43.2558L11.7794 43.2576C11.7474 43.3521 11.7474 43.3521 11.3979 43.7961C11.2792 43.9464 11.1501 44.0907 11.0186 44.2328C8.95315 46.4581 8.71333 49.2586 10.3764 51.7245C11.4066 53.2518 13.1092 54.299 15.1708 54.6732C17.2548 55.0501 19.4514 54.6994 21.3578 53.6822L33.1033 47.4164C33.3715 47.2735 33.5607 47.0465 33.6363 46.7775C33.7118 46.5087 33.6649 46.2293 33.5039 45.9909C33.1727 45.5 32.4534 45.3387 31.9013 45.6343L26.1071 48.7256C25.7933 48.8932 25.3857 48.8031 25.1977 48.5237C25.0092 48.2447 25.1109 47.8826 25.4247 47.715L31.2194 44.6237L33.1013 43.6198C33.3694 43.4766 33.5591 43.2496 33.6346 42.9812C33.7102 42.7122 33.6633 42.4324 33.5022 42.1943C33.1706 41.703 32.4513 41.5432 31.8997 41.8378L24.2231 45.933C23.9085 46.1009 23.5021 46.0101 23.3137 45.7311C23.1253 45.452 23.2274 45.0899 23.5407 44.9224L32.9622 39.8963C33.2304 39.7531 33.4196 39.5265 33.4952 39.2574C33.5707 38.9887 33.5238 38.7093 33.3632 38.4709C33.2026 38.2328 32.9473 38.0645 32.6447 37.9973C32.3405 37.9301 32.0275 37.9718 31.7602 38.1143L30.0161 39.0448C30.0157 39.0448 30.0157 39.0452 30.0153 39.0452H30.0149L22.3387 43.1404C22.0241 43.3087 21.6174 43.2179 21.4293 42.9385C21.2409 42.6595 21.343 42.2974 21.6564 42.1298L29.333 38.0346C29.6011 37.8914 29.7908 37.6644 29.8663 37.396C29.9493 37.1015 29.8862 36.8003 29.6895 36.5478C29.3483 36.109 28.6186 35.9923 28.0654 36.288L16.3283 42.5495C16.0714 42.6861 15.7423 42.6528 15.5268 42.4679C15.311 42.2826 15.2624 41.9914 15.4077 41.7585L17.8483 37.8482C18.0932 37.4573 18.0836 36.9745 17.8226 36.5877L17.8227 36.5876Z" fill="white"/>
<path d="M63.7274 52.3304C62.5042 54.1446 60.4925 55.3863 58.0623 55.8277C55.6537 56.2644 53.1205 55.8617 50.9281 54.6927L39.1826 48.4268C38.611 48.122 38.2068 47.6377 38.0449 47.0626C37.8843 46.4886 37.9847 45.8925 38.3271 45.3846C38.5409 45.0672 38.8406 44.817 39.188 44.632L39.1847 44.6302C38.6131 44.3253 38.2089 43.841 38.0478 43.2667C37.886 42.6924 37.9864 42.0959 38.3292 41.5873C38.55 41.2607 38.8526 41.0052 39.198 40.824C38.6966 40.5173 38.3355 40.0718 38.1869 39.5432C38.025 38.9685 38.1254 38.3724 38.4683 37.8645C38.8107 37.3562 39.3557 36.9971 40.0016 36.8535C40.2033 36.8085 40.4079 36.7863 40.6105 36.7863C41.0081 36.7867 41.3983 36.8764 41.7569 37.0433C41.7789 36.6302 41.9171 36.2246 42.1885 35.8765C42.9327 34.9217 44.4236 34.6574 45.585 35.2771L55.2033 40.4076L53.9635 38.4218C53.4878 37.6637 53.5053 36.7283 54.0096 35.9805C54.2553 35.6166 54.6064 35.3143 55.0261 35.105C55.371 34.9352 55.7445 34.8548 56.1131 34.8548C56.9046 34.8551 57.6733 35.2265 58.0825 35.8839C59.5087 38.169 62.1999 42.4786 62.3892 42.7795C62.4294 42.8315 62.5511 42.9866 62.6552 43.1183C62.7544 43.2435 62.8615 43.363 62.9723 43.4819C65.3739 46.0708 65.6636 49.461 63.7274 52.3305L63.7274 52.3304ZM61.9498 44.2331C61.8178 44.091 61.6883 43.9459 61.5704 43.7964C61.2118 43.3439 61.2026 43.3321 61.1757 43.2136C60.7565 42.5968 59.7338 40.9595 56.9226 36.4557C56.676 36.0603 56.1157 35.916 55.6695 36.1353C55.4499 36.2445 55.2735 36.397 55.1448 36.5878C54.8842 36.9743 54.8742 37.457 55.1203 37.8491L57.5601 41.7582C57.7058 41.9915 57.6572 42.2824 57.4418 42.4676C57.2268 42.6533 56.8981 42.6858 56.6399 42.5492L44.9029 36.2877C44.3496 35.9928 43.6203 36.1083 43.2783 36.5476C43.0816 36.8 43.0189 37.1012 43.1011 37.3954C43.1766 37.6641 43.3663 37.8907 43.6348 38.0339C43.6357 38.0343 43.6361 38.035 43.6369 38.0354L51.311 42.1295C51.6248 42.2971 51.7265 42.6588 51.5381 42.9382C51.3496 43.2169 50.9433 43.308 50.6287 43.1401L41.2072 38.1141C40.9399 37.9716 40.6252 37.9295 40.3231 37.9971C40.0201 38.0642 39.7652 38.2325 39.6046 38.4713C39.4436 38.7094 39.3971 38.9888 39.4718 39.2575C39.5473 39.5262 39.737 39.7532 40.0051 39.8965L41.8385 40.8742L49.4262 44.9226C49.74 45.0902 49.8417 45.4519 49.6533 45.7313C49.4648 46.01 49.0585 46.1008 48.7439 45.9332L41.0681 41.838C40.5161 41.5427 39.7972 41.7029 39.4652 42.1945C39.3041 42.433 39.2576 42.7124 39.3323 42.9811C39.4079 43.2498 39.5976 43.4764 39.8661 43.62L41.748 44.624L47.5418 47.7152C47.8556 47.8828 47.9573 48.2445 47.7689 48.5239C47.5804 48.8026 47.1741 48.8941 46.8595 48.7258L41.0656 45.6346C40.7983 45.4921 40.485 45.45 40.1811 45.5176C39.879 45.5847 39.6233 45.753 39.4627 45.9911C39.302 46.2295 39.2551 46.5093 39.3299 46.7777C39.4054 47.0464 39.5951 47.273 39.8636 47.4166L51.6092 53.6824C53.5152 54.6993 55.7133 55.0514 57.7961 54.6734C59.8573 54.2992 61.5599 53.252 62.5901 51.7247C64.2549 49.2583 64.0154 46.4576 61.9505 44.233L61.9498 44.2331Z" fill="white"/>
</svg>
